<?xml version="1.0" encoding="UTF-8" standalone="no"?>
<svg
   width="80"
   height="80"
   viewBox="0 0 80 80"
   fill="none"
   version="1.1"
   id="svg2"
   sodipodi:docname="Correo.svg"
   inkscape:version="1.4.2 (f4327f4, 2025-05-13)"
   xmlns:inkscape="http://www.inkscape.org/namespaces/inkscape"
   xmlns:sodipodi="http://sodipodi.sourceforge.net/DTD/sodipodi-0.dtd"
   xmlns="http://www.w3.org/2000/svg"
   xmlns:svg="http://www.w3.org/2000/svg">
  <defs
     id="defs2" />
  <sodipodi:namedview
     id="namedview2"
     pagecolor="#ffffff"
     bordercolor="#000000"
     borderopacity="0.25"
     inkscape:showpageshadow="2"
     inkscape:pageopacity="0.0"
     inkscape:pagecheckerboard="0"
     inkscape:deskcolor="#d1d1d1"
     showgrid="false"
     inkscape:zoom="7.9495944"
     inkscape:cx="38.240945"
     inkscape:cy="35.662197"
     inkscape:window-width="1920"
     inkscape:window-height="991"
     inkscape:window-x="-9"
     inkscape:window-y="-9"
     inkscape:window-maximized="1"
     inkscape:current-layer="svg2" />
  <rect
     width="80"
     height="80"
     rx="40"
     fill="#786960"
     id="rect1"
     x="0"
     y="0"
     style="stroke-width:1.21212" />
  <rect
     x="4.848485"
     y="4.8533335"
     width="70.303032"
     height="69.159996"
     rx="34.545456"
     fill="#8a8787"
     id="rect2"
     style="stroke-width:1.21273" />
  <path
     d="M 58.939395,34.940967 V 23.508334 c 0,-2.509295 -2.038546,-4.550001 -4.545576,-4.550001 h -34.09091 c -2.506788,0 -4.545333,2.040585 -4.545333,4.550001 v 22.75 c 0,2.509416 2.038545,4.55 4.545455,4.55 h 25.484606 c 1.488848,5.243906 6.305818,9.100001 12.015394,9.100001 2.197334,0 4.357939,-0.578761 6.251151,-1.675129 0.542667,-0.314375 0.729091,-1.009735 0.413819,-1.554037 -0.314061,-0.544301 -1.009818,-0.732126 -1.552485,-0.414353 -1.54691,0.895439 -3.314788,1.368518 -5.112606,1.368518 -5.639636,0 -10.227273,-4.592224 -10.227273,-10.2375 0,-5.645154 4.587757,-10.2375 10.227273,-10.2375 5.639636,0 10.227273,4.592346 10.227273,10.2375 v 1.137621 c 0,1.254102 -1.019758,2.274879 -2.272607,2.274879 -1.252847,0 -2.272727,-1.020777 -2.272727,-2.274879 v -4.550121 c 0,-0.62875 -0.508242,-1.1375 -1.136363,-1.1375 -0.305698,0 -0.580364,0.12376 -0.784364,0.319956 -1.004364,-0.895925 -2.313212,-1.457456 -3.761212,-1.457456 -3.132727,0 -5.681697,2.551519 -5.681697,5.687379 0,3.135981 2.54897,5.687621 5.681818,5.687621 1.693455,0 3.199273,-0.760396 4.241213,-1.941091 0.82315,1.170624 2.177454,1.941091 3.713454,1.941091 2.506788,0 4.545333,-2.040584 4.545333,-4.55 v -1.137621 c 0,-6.515358 -5.002425,-11.877321 -11.363636,-12.454746 z M 20.303031,21.233333 H 54.39394 c 0.0474,0 0.0869,0.02415 0.133576,0.02706 L 38.282909,34.607786 c -0.578181,0.364485 -1.416,0.288894 -1.792242,0.05787 L 20.170909,21.260148 c 0.04606,-0.0028 0.08534,-0.02682 0.132122,-0.02682 z m 36.363637,13.707634 c -6.361213,0.577425 -11.363637,5.939388 -11.363637,12.454867 0,0.383899 0.02351,0.762337 0.05746,1.137621 h -25.05746 c -1.252849,0 -2.272607,-1.020898 -2.272607,-2.275 V 23.508334 c 0,-0.322141 0.07103,-0.626323 0.192243,-0.904298 l 16.926425,13.894487 c 0.661454,0.432189 1.421575,0.659932 2.199515,0.659932 0.748,0 1.479273,-0.210998 2.122908,-0.610914 0.06437,-0.03446 0.125455,-0.07547 0.183152,-0.123274 L 56.474304,22.603794 c 0.121333,0.278217 0.192485,0.582399 0.192485,0.904661 v 11.432512 z m 1.136363,15.867367 c -1.879878,0 -3.409091,-1.530741 -3.409091,-3.4125 0,-1.881758 1.529213,-3.4125 3.409091,-3.4125 1.879879,0 3.409091,1.530742 3.409091,3.4125 0,1.881759 -1.529212,3.4125 -3.409091,3.4125 z"
     fill="#ffffff"
     id="path2"
     style="stroke-width:1.21273" />
</svg>
