<?xml version="1.0" encoding="UTF-8" standalone="no"?>
<svg
   width="80"
   height="80"
   viewBox="0 0 80 80"
   fill="none"
   version="1.1"
   id="svg4"
   sodipodi:docname="Telefono.svg"
   inkscape:version="1.4.2 (f4327f4, 2025-05-13)"
   xmlns:inkscape="http://www.inkscape.org/namespaces/inkscape"
   xmlns:sodipodi="http://sodipodi.sourceforge.net/DTD/sodipodi-0.dtd"
   xmlns="http://www.w3.org/2000/svg"
   xmlns:svg="http://www.w3.org/2000/svg">
  <sodipodi:namedview
     id="namedview4"
     pagecolor="#ffffff"
     bordercolor="#000000"
     borderopacity="0.25"
     inkscape:showpageshadow="2"
     inkscape:pageopacity="0.0"
     inkscape:pagecheckerboard="0"
     inkscape:deskcolor="#d1d1d1"
     showgrid="false"
     inkscape:zoom="7.9495944"
     inkscape:cx="34.59296"
     inkscape:cy="37.045915"
     inkscape:window-width="1920"
     inkscape:window-height="991"
     inkscape:window-x="-9"
     inkscape:window-y="-9"
     inkscape:window-maximized="1"
     inkscape:current-layer="svg4" />
  <rect
     width="80"
     height="80"
     rx="40"
     fill="#786960"
     id="rect1"
     x="0"
     y="0"
     style="stroke-width:1.21211" />
  <rect
     x="4.848485"
     y="4.848485"
     width="70.303032"
     height="69.090912"
     rx="34.545456"
     fill="#8a8787"
     id="rect2"
     style="stroke-width:1.21211" />
  <g
     clip-path="url(#clip0_1_70)"
     id="g4"
     transform="scale(1.2121213)">
    <path
       d="m 45.5634,37.8759 c -0.9212,-0.9592 -2.0324,-1.4721 -3.2101,-1.4721 -1.1682,0 -2.2889,0.5034 -3.2482,1.4626 l -3.0012,2.9917 c -0.247,-0.1329 -0.4939,-0.2564 -0.7313,-0.3799 -0.342,-0.1709 -0.6649,-0.3324 -0.9403,-0.5033 -2.8113,-1.7856 -5.3661,-4.1125 -7.8165,-7.1232 -1.1872,-1.5006 -1.985,-2.7638 -2.5643,-4.046 0.7788,-0.7123 1.5006,-1.4531 2.2034,-2.1654 0.2659,-0.2659 0.5319,-0.5414 0.7978,-0.8073 1.9945,-1.9945 1.9945,-4.5778 0,-6.5723 l -2.5928,-2.5928 c -0.2945,-0.2945 -0.5984,-0.5984 -0.8833,-0.9023 -0.5699,-0.5889 -1.1682,-1.1967 -1.7855,-1.7666 -0.9213,-0.9117 -2.023,-1.3961 -3.1817,-1.3961 -1.1587,0 -2.2794,0.4844 -3.2292,1.3961 -0.0095,0.0095 -0.0095,0.0095 -0.019,0.019 l -3.2292,3.2577 c -1.2157,1.2157 -1.909,2.6973 -2.0609,4.4164 -0.22798,2.7733 0.5888,5.3566 1.2157,7.0472 1.5386,4.1504 3.837,7.9969 7.2656,12.1188 4.1599,4.9673 9.1651,8.8898 14.8827,11.6535 2.1844,1.0353 5.1001,2.2605 8.3578,2.4694 0.1995,0.0095 0.4084,0.019 0.5984,0.019 2.1939,0 4.0364,-0.7883 5.48,-2.3554 0.0095,-0.019 0.0285,-0.0285 0.038,-0.0475 0.4939,-0.5983 1.0638,-1.1397 1.6621,-1.719 0.4084,-0.3894 0.8263,-0.7978 1.2347,-1.2252 0.9402,-0.9783 1.4341,-2.118 1.4341,-3.2862 0,-1.1777 -0.5033,-2.3079 -1.4626,-3.2576 z m 3.4002,10.0009 c -0.0095,0 -0.0095,0.0095 0,0 -0.3704,0.3989 -0.7503,0.7598 -1.1587,1.1587 -0.6174,0.5889 -1.2442,1.2062 -1.8331,1.8996 -0.9592,1.0257 -2.0894,1.5101 -3.571,1.5101 -0.1425,0 -0.2945,0 -0.4369,-0.0095 C 39.1431,52.2552 36.5218,51.1535 34.5558,50.2132 29.1802,47.6109 24.4599,43.9164 20.5374,39.2341 17.2987,35.3306 15.1333,31.7215 13.6991,27.8465 12.8159,25.4816 12.4929,23.6391 12.6354,21.901 c 0.095,-1.1112 0.5224,-2.0325 1.3107,-2.8208 l 3.2386,-3.2386 c 0.4654,-0.4369 0.9593,-0.6744 1.4437,-0.6744 0.5983,0 1.0827,0.361 1.3866,0.6649 0.0095,0.0095 0.019,0.019 0.0285,0.0285 0.5794,0.5413 1.1302,1.1017 1.7096,1.7 0.2944,0.304 0.5983,0.6079 0.9022,0.9213 l 2.5929,2.5928 c 1.0067,1.0068 1.0067,1.9375 0,2.9443 -0.2755,0.2754 -0.5414,0.5508 -0.8168,0.8168 -0.7978,0.8168 -1.5576,1.5766 -2.3839,2.3174 -0.019,0.019 -0.038,0.0285 -0.0475,0.0475 -0.8168,0.8167 -0.6648,1.6145 -0.4939,2.1559 0.0095,0.0285 0.019,0.057 0.0285,0.0855 0.6743,1.6336 1.6241,3.1722 3.0677,5.0052 l 0.0095,0.0095 c 2.6214,3.2292 5.3851,5.746 8.4339,7.674 0.3894,0.247 0.7883,0.4464 1.1682,0.6364 0.3419,0.1709 0.6648,0.3324 0.9402,0.5033 0.038,0.019 0.076,0.0475 0.114,0.0665 0.3229,0.1615 0.6268,0.2374 0.9402,0.2374 0.7883,0 1.2822,-0.4938 1.4437,-0.6553 l 3.2481,-3.2482 c 0.323,-0.3229 0.8358,-0.7123 1.4342,-0.7123 0.5888,0 1.0732,0.3704 1.3676,0.6934 0.0095,0.0094 0.0095,0.0095 0.019,0.0189 l 5.2332,5.2332 c 0.9782,0.9688 0.9782,1.966 0.0095,2.9727 z"
       fill="#ffffff"
       id="path2" />
    <path
       d="m 34.3191,20.7043 c 2.4883,0.4179 4.7487,1.5956 6.5533,3.4001 1.8045,1.8046 2.9727,4.065 3.4001,6.5534 0.1045,0.6268 0.6458,1.0637 1.2632,1.0637 0.076,0 0.1425,-0.0095 0.2184,-0.019 0.7029,-0.114 1.1682,-0.7788 1.0543,-1.4816 -0.5129,-3.0108 -1.9375,-5.7556 -4.1125,-7.9305 -2.1749,-2.1749 -4.9197,-3.5996 -7.9305,-4.1124 -0.7028,-0.114 -1.3581,0.3514 -1.4816,1.0447 -0.1234,0.6933 0.3324,1.3676 1.0353,1.4816 z"
       fill="#ffffff"
       id="path3" />
    <path
       d="m 54.9477,29.8505 c -0.8452,-4.9577 -3.1816,-9.4691 -6.7717,-13.0592 -3.5901,-3.59 -8.1014,-5.9264 -13.0592,-6.7717 -0.6933,-0.12349 -1.3486,0.3514 -1.4721,1.0447 -0.114,0.7028 0.3514,1.3582 1.0542,1.4816 4.4259,0.7503 8.4624,2.8493 11.6725,6.05 3.2102,3.2101 5.2997,7.2466 6.05,11.6725 0.1045,0.6268 0.6458,1.0637 1.2632,1.0637 0.0759,0 0.1424,-0.0095 0.2184,-0.019 0.6933,-0.1045 1.1682,-0.7693 1.0447,-1.4626 z"
       fill="#ffffff"
       id="path4" />
  </g>
  <defs
     id="defs4">
    <clipPath
       id="clip0_1_70">
      <rect
         width="45"
         height="45"
         fill="#ffffff"
         transform="translate(10,10)"
         id="rect4"
         x="0"
         y="0" />
    </clipPath>
  </defs>
</svg>
