<?xml version="1.0" encoding="UTF-8" standalone="no"?>
<svg
   width="80"
   height="80"
   viewBox="0 0 80 80"
   fill="none"
   version="1.1"
   id="svg3"
   sodipodi:docname="Ubicación.svg"
   inkscape:version="1.4.2 (f4327f4, 2025-05-13)"
   xmlns:inkscape="http://www.inkscape.org/namespaces/inkscape"
   xmlns:sodipodi="http://sodipodi.sourceforge.net/DTD/sodipodi-0.dtd"
   xmlns="http://www.w3.org/2000/svg"
   xmlns:svg="http://www.w3.org/2000/svg">
  <defs
     id="defs3" />
  <sodipodi:namedview
     id="namedview3"
     pagecolor="#ffffff"
     bordercolor="#000000"
     borderopacity="0.25"
     inkscape:showpageshadow="2"
     inkscape:pageopacity="0.0"
     inkscape:pagecheckerboard="0"
     inkscape:deskcolor="#d1d1d1"
     inkscape:zoom="8.2817203"
     inkscape:cx="41.899507"
     inkscape:cy="42.201377"
     inkscape:window-width="1920"
     inkscape:window-height="991"
     inkscape:window-x="-9"
     inkscape:window-y="-9"
     inkscape:window-maximized="1"
     inkscape:current-layer="svg3" />
  <rect
     width="80"
     height="80"
     rx="40"
     fill="#786960"
     id="rect1"
     x="0"
     y="0"
     style="stroke-width:1.21212" />
  <rect
     x="4.848485"
     y="4.848485"
     width="70.303024"
     height="69.090912"
     rx="34.545456"
     fill="#8a8787"
     id="rect2"
     style="stroke-width:1.21212" />
  <path
     d="m 48.5,48.160121 c 5.804364,-9.108 5.074666,-7.971636 5.241939,-8.209091 2.113212,-2.980606 3.230182,-6.488727 3.230182,-10.145212 0,-9.696727 -7.868727,-17.684606 -17.578182,-17.684606 -9.677818,0 -17.578181,7.972121 -17.578181,17.684606 0,3.654182 1.140363,7.25406 3.322908,10.274788 l 5.148971,8.079636 c -5.505213,0.84594 -14.86388,3.36703 -14.86388,8.918304 0,2.023636 1.320849,4.907514 7.613092,7.154787 4.393696,1.569091 10.202666,2.433333 16.35709,2.433333 11.508364,0 23.970182,-3.246303 23.970182,-9.58812 0,-5.552243 -9.347758,-8.070667 -14.864121,-8.918425 z M 27.808242,38.322788 c -0.01758,-0.02752 -0.03588,-0.05443 -0.05504,-0.08084 -1.816121,-2.498424 -2.741333,-5.459394 -2.741333,-8.436121 0,-7.991879 6.435273,-14.488606 14.38206,-14.488606 7.930303,0 14.38206,6.499516 14.38206,14.488606 0,2.981576 -0.907757,5.84206 -2.625575,8.274667 -0.153939,0.20303 0.649212,-1.044728 -11.756485,18.421696 z m 11.585697,25.147878 c -12.570424,0 -20.774182,-3.694909 -20.774182,-6.39212 0,-1.812728 4.215395,-4.793455 13.556243,-5.955274 l 5.870303,9.211273 c 0.293333,0.460364 0.801575,0.73903 1.347515,0.73903 0.546061,0 1.054303,-0.278787 1.347515,-0.73903 l 5.870182,-9.211273 c 9.341091,1.161819 13.556606,4.142546 13.556606,5.955274 0,2.674302 -8.129939,6.39212 -20.774182,6.39212 z"
     fill="#ffffff"
     id="path2"
     style="stroke-width:1.21212" />
  <path
     d="m 39.393939,21.815758 c -4.405697,0 -7.99006,3.584363 -7.99006,7.99006 0,4.405819 3.584363,7.990061 7.99006,7.990061 4.405697,0 7.990061,-3.584242 7.990061,-7.990061 0,-4.405697 -3.584364,-7.99006 -7.990061,-7.99006 z m 0,12.784121 c -2.643394,0 -4.79406,-2.150546 -4.79406,-4.794061 0,-2.643394 2.150666,-4.793939 4.79406,-4.793939 2.643394,0 4.794061,2.150545 4.794061,4.793939 0,2.643515 -2.150667,4.794061 -4.794061,4.794061 z"
     fill="#ffffff"
     id="path3"
     style="stroke-width:1.21212" />
</svg>
